<svg id="visual" viewBox="0 0 900 600" width="900" height="600" xmlns="http://www.w3.org/2000/svg" xmlns:xlink="http://www.w3.org/1999/xlink" version="1.1"><rect x="0" y="0" width="900" height="600" fill="#001220"></rect><defs><linearGradient id="grad1_0" x1="33.3%" y1="0%" x2="100%" y2="100%"><stop offset="20%" stop-color="#001220" stop-opacity="1"></stop><stop offset="80%" stop-color="#001220" stop-opacity="1"></stop></linearGradient></defs><defs><linearGradient id="grad2_0" x1="0%" y1="0%" x2="66.7%" y2="100%"><stop offset="20%" stop-color="#001220" stop-opacity="1"></stop><stop offset="80%" stop-color="#001220" stop-opacity="1"></stop></linearGradient></defs><g transform="translate(900, 0)"><path d="M0 486.7C-64.6 481.3 -129.3 475.8 -186.3 449.7C-243.3 423.6 -292.6 377 -326.7 326.7C-360.8 276.3 -379.6 222.3 -403.7 167.2C-427.9 112.2 -457.3 56.1 -486.7 0L0 0Z" fill="#FFFFFF"></path></g><g transform="translate(0, 600)"><path d="M0 -486.7C67 -483.4 134 -480.1 186.3 -449.7C238.5 -419.3 275.9 -361.8 312.5 -312.5C349.2 -263.3 385 -222.2 413.9 -171.4C442.8 -120.7 464.8 -60.4 486.7 0L0 0Z" fill="#FFFFFF"></path></g></svg>