<svg id="visual" viewBox="0 0 1200 600" width="1200" height="600" xmlns="http://www.w3.org/2000/svg" xmlns:xlink="http://www.w3.org/1999/xlink" version="1.1"><rect x="0" y="0" width="1200" height="600" fill="#030712"></rect><defs><linearGradient id="grad1_0" x1="50%" y1="0%" x2="100%" y2="100%"><stop offset="10%" stop-color="#030712" stop-opacity="1"></stop><stop offset="90%" stop-color="#030712" stop-opacity="1"></stop></linearGradient></defs><defs><linearGradient id="grad2_0" x1="0%" y1="0%" x2="50%" y2="100%"><stop offset="10%" stop-color="#030712" stop-opacity="1"></stop><stop offset="90%" stop-color="#030712" stop-opacity="1"></stop></linearGradient></defs><g transform="translate(1200, 0)"><path d="M0 540C-56.4 488.6 -112.8 437.1 -168.4 406.5C-223.9 375.9 -278.6 366.2 -338.7 338.7C-398.8 311.2 -464.4 266.1 -498.9 206.6C-533.4 147.2 -536.7 73.6 -540 0L0 0Z" fill="#FFFFFF"></path></g><g transform="translate(0, 600)"><path d="M0 -540C80.1 -541.4 160.3 -542.9 206.6 -498.9C253 -454.9 265.7 -365.5 314 -314C362.2 -262.4 446.1 -248.8 489.7 -202.8C533.3 -156.8 536.6 -78.4 540 0L0 0Z" fill="#FFFFFF"></path></g></svg>