<svg id="visual" viewBox="0 0 900 600" width="900" height="600" xmlns="http://www.w3.org/2000/svg" xmlns:xlink="http://www.w3.org/1999/xlink" version="1.1"><g stroke-width="1" stroke-linejoin="bevel"><path d="M415 327L347 429L435 407Z" fill="#919191" stroke="#FFFFFF"></path><path d="M347 429L432 460L435 407Z" fill="#303030" stroke="#FFFFFF"></path><path d="M415 327L287 351L347 429Z" fill="#ffffff" stroke="#FFFFFF"></path><path d="M287 351L328 465L347 429Z" fill="#777777" stroke="#FFFFFF"></path><path d="M347 429L328 465L432 460Z" fill="#000000" stroke="#FFFFFF"></path><path d="M498 600L482 462L432 460Z" fill="#5e5e5e" stroke="#FFFFFF"></path><path d="M432 460L482 462L435 407Z" fill="#ffffff" stroke="#FFFFFF"></path><path d="M435 407L534 335L415 327Z" fill="#e2e2e2" stroke="#FFFFFF"></path><path d="M553 227L386 227L415 327Z" fill="#000000" stroke="#FFFFFF"></path><path d="M415 327L386 227L287 351Z" fill="#474747" stroke="#FFFFFF"></path><path d="M556 407L534 335L435 407Z" fill="#c6c6c6" stroke="#FFFFFF"></path><path d="M482 462L556 407L435 407Z" fill="#e2e2e2" stroke="#FFFFFF"></path><path d="M228 287L207 393L287 351Z" fill="#474747" stroke="#FFFFFF"></path><path d="M287 351L207 393L328 465Z" fill="#000000" stroke="#FFFFFF"></path><path d="M526 456L556 407L482 462Z" fill="#303030" stroke="#FFFFFF"></path><path d="M291 189L228 287L287 351Z" fill="#e2e2e2" stroke="#FFFFFF"></path><path d="M386 227L291 189L287 351Z" fill="#777777" stroke="#FFFFFF"></path><path d="M321 600L362 600L328 465Z" fill="#919191" stroke="#FFFFFF"></path><path d="M328 465L362 600L432 460Z" fill="#ffffff" stroke="#FFFFFF"></path><path d="M482 462L498 600L526 456Z" fill="#1b1b1b" stroke="#FFFFFF"></path><path d="M207 393L216 533L328 465Z" fill="#ababab" stroke="#FFFFFF"></path><path d="M651 290L553 227L534 335Z" fill="#000000" stroke="#FFFFFF"></path><path d="M534 335L553 227L415 327Z" fill="#c6c6c6" stroke="#FFFFFF"></path><path d="M386 227L292 121L291 189Z" fill="#474747" stroke="#FFFFFF"></path><path d="M216 533L321 600L328 465Z" fill="#c6c6c6" stroke="#FFFFFF"></path><path d="M292 121L248 180L291 189Z" fill="#c6c6c6" stroke="#FFFFFF"></path><path d="M291 189L248 180L228 287Z" fill="#303030" stroke="#FFFFFF"></path><path d="M228 287L87 282L207 393Z" fill="#000000" stroke="#FFFFFF"></path><path d="M362 600L498 600L432 460Z" fill="#5e5e5e" stroke="#FFFFFF"></path><path d="M526 456L641 550L556 407Z" fill="#919191" stroke="#FFFFFF"></path><path d="M248 180L154 235L228 287Z" fill="#e2e2e2" stroke="#FFFFFF"></path><path d="M87 600L179 600L216 533Z" fill="#ffffff" stroke="#FFFFFF"></path><path d="M434 53L292 121L386 227Z" fill="#919191" stroke="#FFFFFF"></path><path d="M248 180L250 121L154 235Z" fill="#e2e2e2" stroke="#FFFFFF"></path><path d="M556 407L651 290L534 335Z" fill="#e2e2e2" stroke="#FFFFFF"></path><path d="M696 457L651 290L556 407Z" fill="#474747" stroke="#FFFFFF"></path><path d="M292 121L250 121L248 180Z" fill="#5e5e5e" stroke="#FFFFFF"></path><path d="M47 503L216 533L207 393Z" fill="#474747" stroke="#FFFFFF"></path><path d="M216 533L179 600L321 600Z" fill="#c6c6c6" stroke="#FFFFFF"></path><path d="M651 290L618 190L553 227Z" fill="#c6c6c6" stroke="#FFFFFF"></path><path d="M553 227L434 53L386 227Z" fill="#5e5e5e" stroke="#FFFFFF"></path><path d="M0 262L87 282L0 244Z" fill="#777777" stroke="#FFFFFF"></path><path d="M154 235L87 282L228 287Z" fill="#000000" stroke="#FFFFFF"></path><path d="M87 282L71 361L207 393Z" fill="#919191" stroke="#FFFFFF"></path><path d="M612 600L641 550L526 456Z" fill="#474747" stroke="#FFFFFF"></path><path d="M498 600L612 600L526 456Z" fill="#1b1b1b" stroke="#FFFFFF"></path><path d="M722 435L696 457L852 490Z" fill="#ffffff" stroke="#FFFFFF"></path><path d="M641 550L696 457L556 407Z" fill="#ffffff" stroke="#FFFFFF"></path><path d="M556 70L434 53L553 227Z" fill="#777777" stroke="#FFFFFF"></path><path d="M292 121L215 0L250 121Z" fill="#000000" stroke="#FFFFFF"></path><path d="M722 435L714 313L651 290Z" fill="#919191" stroke="#FFFFFF"></path><path d="M651 290L709 216L618 190Z" fill="#ffffff" stroke="#FFFFFF"></path><path d="M799 600L696 457L641 550Z" fill="#ffffff" stroke="#FFFFFF"></path><path d="M696 457L722 435L651 290Z" fill="#e2e2e2" stroke="#FFFFFF"></path><path d="M608 50L556 70L618 190Z" fill="#303030" stroke="#FFFFFF"></path><path d="M618 190L556 70L553 227Z" fill="#e2e2e2" stroke="#FFFFFF"></path><path d="M71 361L47 503L207 393Z" fill="#5e5e5e" stroke="#FFFFFF"></path><path d="M612 600L662 600L641 550Z" fill="#000000" stroke="#FFFFFF"></path><path d="M714 313L709 216L651 290Z" fill="#303030" stroke="#FFFFFF"></path><path d="M805 332L709 216L714 313Z" fill="#474747" stroke="#FFFFFF"></path><path d="M47 503L87 600L216 533Z" fill="#c6c6c6" stroke="#FFFFFF"></path><path d="M525 0L359 0L434 53Z" fill="#000000" stroke="#FFFFFF"></path><path d="M434 53L359 0L292 121Z" fill="#474747" stroke="#FFFFFF"></path><path d="M0 244L87 282L154 235Z" fill="#ffffff" stroke="#FFFFFF"></path><path d="M359 0L339 0L292 121Z" fill="#ababab" stroke="#FFFFFF"></path><path d="M71 361L0 452L47 503Z" fill="#919191" stroke="#FFFFFF"></path><path d="M47 503L0 539L87 600Z" fill="#1b1b1b" stroke="#FFFFFF"></path><path d="M0 262L0 452L71 361Z" fill="#1b1b1b" stroke="#FFFFFF"></path><path d="M0 244L154 235L83 97Z" fill="#5e5e5e" stroke="#FFFFFF"></path><path d="M87 282L0 262L71 361Z" fill="#1b1b1b" stroke="#FFFFFF"></path><path d="M683 64L608 50L618 190Z" fill="#000000" stroke="#FFFFFF"></path><path d="M556 70L525 0L434 53Z" fill="#303030" stroke="#FFFFFF"></path><path d="M83 97L154 235L250 121Z" fill="#474747" stroke="#FFFFFF"></path><path d="M582 0L525 0L556 70Z" fill="#000000" stroke="#FFFFFF"></path><path d="M215 0L83 97L250 121Z" fill="#5e5e5e" stroke="#FFFFFF"></path><path d="M339 0L215 0L292 121Z" fill="#ffffff" stroke="#FFFFFF"></path><path d="M0 452L0 539L47 503Z" fill="#777777" stroke="#FFFFFF"></path><path d="M837 356L805 332L722 435Z" fill="#474747" stroke="#FFFFFF"></path><path d="M722 435L805 332L714 313Z" fill="#777777" stroke="#FFFFFF"></path><path d="M709 216L683 64L618 190Z" fill="#303030" stroke="#FFFFFF"></path><path d="M730 0L582 0L608 50Z" fill="#919191" stroke="#FFFFFF"></path><path d="M608 50L582 0L556 70Z" fill="#919191" stroke="#FFFFFF"></path><path d="M825 156L683 64L709 216Z" fill="#5e5e5e" stroke="#FFFFFF"></path><path d="M0 539L0 600L87 600Z" fill="#ffffff" stroke="#FFFFFF"></path><path d="M852 490L837 356L722 435Z" fill="#1b1b1b" stroke="#FFFFFF"></path><path d="M805 332L825 156L709 216Z" fill="#ababab" stroke="#FFFFFF"></path><path d="M215 0L124 0L83 97Z" fill="#5e5e5e" stroke="#FFFFFF"></path><path d="M83 97L0 122L0 244Z" fill="#474747" stroke="#FFFFFF"></path><path d="M0 0L0 122L83 97Z" fill="#5e5e5e" stroke="#FFFFFF"></path><path d="M662 600L799 600L641 550Z" fill="#e2e2e2" stroke="#FFFFFF"></path><path d="M799 600L852 490L696 457Z" fill="#474747" stroke="#FFFFFF"></path><path d="M900 208L825 156L805 332Z" fill="#c6c6c6" stroke="#FFFFFF"></path><path d="M825 105L825 156L900 114Z" fill="#000000" stroke="#FFFFFF"></path><path d="M772 0L730 0L683 64Z" fill="#e2e2e2" stroke="#FFFFFF"></path><path d="M683 64L730 0L608 50Z" fill="#303030" stroke="#FFFFFF"></path><path d="M900 288L805 332L837 356Z" fill="#777777" stroke="#FFFFFF"></path><path d="M825 156L825 105L683 64Z" fill="#ffffff" stroke="#FFFFFF"></path><path d="M900 554L900 450L852 490Z" fill="#ababab" stroke="#FFFFFF"></path><path d="M852 490L900 450L837 356Z" fill="#777777" stroke="#FFFFFF"></path><path d="M900 450L900 288L837 356Z" fill="#474747" stroke="#FFFFFF"></path><path d="M124 0L0 0L83 97Z" fill="#c6c6c6" stroke="#FFFFFF"></path><path d="M825 105L772 0L683 64Z" fill="#000000" stroke="#FFFFFF"></path><path d="M900 288L900 208L805 332Z" fill="#5e5e5e" stroke="#FFFFFF"></path><path d="M825 105L900 0L772 0Z" fill="#474747" stroke="#FFFFFF"></path><path d="M799 600L900 554L852 490Z" fill="#777777" stroke="#FFFFFF"></path><path d="M799 600L900 600L900 554Z" fill="#5e5e5e" stroke="#FFFFFF"></path><path d="M900 208L900 114L825 156Z" fill="#5e5e5e" stroke="#FFFFFF"></path><path d="M900 114L900 0L825 105Z" fill="#c6c6c6" stroke="#FFFFFF"></path></g></svg>