<svg id="visual" viewBox="0 0 960 540" width="960" height="540" xmlns="http://www.w3.org/2000/svg" xmlns:xlink="http://www.w3.org/1999/xlink" version="1.1"><path d="M0 87L14.5 85.3C29 83.7 58 80.3 87.2 84C116.3 87.7 145.7 98.3 174.8 100C204 101.7 233 94.3 262 89C291 83.7 320 80.3 349 78.7C378 77 407 77 436.2 76C465.3 75 494.7 73 523.8 77.5C553 82 582 93 611 95.7C640 98.3 669 92.7 698 94.3C727 96 756 105 785.2 97C814.3 89 843.7 64 872.8 58.7C902 53.3 931 67.7 945.5 74.8L960 82L960 0L945.5 0C931 0 902 0 872.8 0C843.7 0 814.3 0 785.2 0C756 0 727 0 698 0C669 0 640 0 611 0C582 0 553 0 523.8 0C494.7 0 465.3 0 436.2 0C407 0 378 0 349 0C320 0 291 0 262 0C233 0 204 0 174.8 0C145.7 0 116.3 0 87.2 0C58 0 29 0 14.5 0L0 0Z" fill="#000000"></path><path d="M0 147L14.5 150.5C29 154 58 161 87.2 171.8C116.3 182.7 145.7 197.3 174.8 204.7C204 212 233 212 262 203C291 194 320 176 349 175C378 174 407 190 436.2 197.2C465.3 204.3 494.7 202.7 523.8 198.2C553 193.7 582 186.3 611 179.2C640 172 669 165 698 171.3C727 177.7 756 197.3 785.2 189.2C814.3 181 843.7 145 872.8 135.2C902 125.3 931 141.7 945.5 149.8L960 158L960 80L945.5 72.8C931 65.7 902 51.3 872.8 56.7C843.7 62 814.3 87 785.2 95C756 103 727 94 698 92.3C669 90.7 640 96.3 611 93.7C582 91 553 80 523.8 75.5C494.7 71 465.3 73 436.2 74C407 75 378 75 349 76.7C320 78.3 291 81.7 262 87C233 92.3 204 99.7 174.8 98C145.7 96.3 116.3 85.7 87.2 82C58 78.3 29 81.7 14.5 83.3L0 85Z" fill="#3b3b3b"></path><path d="M0 357L14.5 358C29 359 58 361 87.2 359.3C116.3 357.7 145.7 352.3 174.8 355.8C204 359.3 233 371.7 262 363.5C291 355.3 320 326.7 349 327.7C378 328.7 407 359.3 436.2 376.5C465.3 393.7 494.7 397.3 523.8 391C553 384.7 582 368.3 611 363.8C640 359.3 669 366.7 698 361.3C727 356 756 338 785.2 333.5C814.3 329 843.7 338 872.8 328C902 318 931 289 945.5 274.5L960 260L960 156L945.5 147.8C931 139.7 902 123.3 872.8 133.2C843.7 143 814.3 179 785.2 187.2C756 195.3 727 175.7 698 169.3C669 163 640 170 611 177.2C582 184.3 553 191.7 523.8 196.2C494.7 200.7 465.3 202.3 436.2 195.2C407 188 378 172 349 173C320 174 291 192 262 201C233 210 204 210 174.8 202.7C145.7 195.3 116.3 180.7 87.2 169.8C58 159 29 152 14.5 148.5L0 145Z" fill="#777777"></path><path d="M0 406L14.5 408.7C29 411.3 58 416.7 87.2 419.3C116.3 422 145.7 422 174.8 421.2C204 420.3 233 418.7 262 407C291 395.3 320 373.7 349 382.7C378 391.7 407 431.3 436.2 444.8C465.3 458.3 494.7 445.7 523.8 435.7C553 425.7 582 418.3 611 422C640 425.7 669 440.3 698 430.5C727 420.7 756 386.3 785.2 377.3C814.3 368.3 843.7 384.7 872.8 377.5C902 370.3 931 339.7 945.5 324.3L960 309L960 258L945.5 272.5C931 287 902 316 872.8 326C843.7 336 814.3 327 785.2 331.5C756 336 727 354 698 359.3C669 364.7 640 357.3 611 361.8C582 366.3 553 382.7 523.8 389C494.7 395.3 465.3 391.7 436.2 374.5C407 357.3 378 326.7 349 325.7C320 324.7 291 353.3 262 361.5C233 369.7 204 357.3 174.8 353.8C145.7 350.3 116.3 355.7 87.2 357.3C58 359 29 357 14.5 356L0 355Z" fill="#b9b9b9"></path><path d="M0 541L14.5 541C29 541 58 541 87.2 541C116.3 541 145.7 541 174.8 541C204 541 233 541 262 541C291 541 320 541 349 541C378 541 407 541 436.2 541C465.3 541 494.7 541 523.8 541C553 541 582 541 611 541C640 541 669 541 698 541C727 541 756 541 785.2 541C814.3 541 843.7 541 872.8 541C902 541 931 541 945.5 541L960 541L960 307L945.5 322.3C931 337.7 902 368.3 872.8 375.5C843.7 382.7 814.3 366.3 785.2 375.3C756 384.3 727 418.7 698 428.5C669 438.3 640 423.7 611 420C582 416.3 553 423.7 523.8 433.7C494.7 443.7 465.3 456.3 436.2 442.8C407 429.3 378 389.7 349 380.7C320 371.7 291 393.3 262 405C233 416.7 204 418.3 174.8 419.2C145.7 420 116.3 420 87.2 417.3C58 414.7 29 409.3 14.5 406.7L0 404Z" fill="#ffffff"></path></svg>